# Made in Blockbench 5.0.4
mtllib human.mtl

o cuboid
v 0.23750000000000007 0.5 0.24375
v 0.23750000000000007 0.5 -0.24375
v 0.23750000000000007 0 0.24375
v 0.23750000000000007 0 -0.24375
v -0.23750000000000007 0.5 0.24375
v -0.23750000000000007 0.5 -0.24375
v -0.23750000000000007 0 0.24375
v -0.23750000000000007 0 -0.24375
vt 1 1
vt 0 1
vt 0 0.5
vt 1 0.5
vt 1 0.5
vt 1 1
vt 0 1
vt 0 0.5
vt 0 0
vt 1 0
vt 1 1
vt 0 1
vt 1 0
vt 1 1
vt 0 1
vt 0 0
vt 1 0.5
vt 1 1
vt 0 1
vt 0 0.5
vt 1 1
vt 0 1
vt 0 0.5
vt 1 0.5
vn 1 0 0
vn -1 0 0
vn 0 1 0
vn 0 -1 0
vn 0 0 1
vn 0 0 -1
usemtl m_2c1995a9-b1c7-52e8-bf8e-4afb08f62934
f 2/1/1 1/2/1 3/3/1 4/4/1
f 7/5/2 5/6/2 6/7/2 8/8/2
f 5/9/3 1/10/3 2/11/3 6/12/3
f 4/13/4 3/14/4 7/15/4 8/16/4
f 3/17/5 1/18/5 5/19/5 7/20/5
f 6/21/6 2/22/6 4/23/6 8/24/6
o cuboid
v 0.14375 0.7937500000000003 0.15625
v 0.14375 0.7937500000000003 -0.15625
v 0.14375 0.4812500000000003 0.15625
v 0.14375 0.4812500000000003 -0.15625
v -0.14375 0.7937500000000003 0.15625
v -0.14375 0.7937500000000003 -0.15625
v -0.14375 0.4812500000000003 0.15625
v -0.14375 0.4812500000000003 -0.15625
vt 0.9999999999999999 0.9994643295245358
vt 0 1
vt 0.007149033296124534 0.004394170537150632
vt 1 0
vt 1 0.5
vt 1 1
vt 0 1
vt 0 0.5
vt 0 0.66875
vt 1 0.66875
vt 1 1
vt 0 1
vt 1 0.8312499999999996
vt 1 1
vt 0 1
vt 0 0.8312499999999996
vt 1 0.5
vt 1 1
vt 0 1
vt 0 0.5
vt 1 1
vt 0 1
vt 0 0.5
vt 1 0.5
vn 1 0 0
vn -1 0 0
vn 0 1 0
vn 0 -1 0
vn 0 0 1
vn 0 0 -1
usemtl m_acfba330-05d9-3c00-c810-4a7e0188c665
f 10/25/7 9/26/7 11/27/7 12/28/7
usemtl m_878c586d-495b-8c5c-b16c-e8d58df0936d
f 15/29/8 13/30/8 14/31/8 16/32/8
f 13/33/9 9/34/9 10/35/9 14/36/9
f 12/37/10 11/38/10 15/39/10 16/40/10
f 11/41/11 9/42/11 13/43/11 15/44/11
f 14/45/12 10/46/12 12/47/12 16/48/12
o cuboid
v 0.14999999999999997 0.06874999999999998 0.19374999999999992
v 0.14999999999999997 0.06874999999999998 0.09375
v 0.14999999999999997 -0.30625 0.19374999999999992
v 0.14999999999999997 -0.30625 0.09375
v -0.14999999999999997 0.06874999999999998 0.19374999999999992
v -0.14999999999999997 0.06874999999999998 0.09375
v -0.14999999999999997 -0.30625 0.19374999999999992
v -0.14999999999999997 -0.30625 0.09375
vt 1 1
vt 0 1
vt 0 0.5
vt 1 0.5
vt 1 0.5
vt 1 1
vt 0 1
vt 0 0.5
vt 0 0
vt 1 0
vt 1 1
vt 0 1
vt 1 0
vt 1 1
vt 0 1
vt 0 0
vt 1 0.5
vt 1 1
vt 0 1
vt 0 0.5
vt 1 1
vt 0 1
vt 0 0.5
vt 1 0.5
vn 1 0 0
vn -1 0 0
vn 0 1 0
vn 0 -1 0
vn 0 0 1
vn 0 0 -1
usemtl m_4210b5e7-b32e-efc8-dad1-28e402008276
f 18/49/13 17/50/13 19/51/13 20/52/13
f 23/53/14 21/54/14 22/55/14 24/56/14
f 21/57/15 17/58/15 18/59/15 22/60/15
f 20/61/16 19/62/16 23/63/16 24/64/16
f 19/65/17 17/66/17 21/67/17 23/68/17
f 22/69/18 18/70/18 20/71/18 24/72/18
o cuboid
v 0.14999999999999997 0.06874999999999998 -0.09375000000000008
v 0.14999999999999997 0.06874999999999998 -0.19375
v 0.14999999999999997 -0.30625 -0.09375000000000008
v 0.14999999999999997 -0.30625 -0.19375
v -0.14999999999999997 0.06874999999999998 -0.09375000000000008
v -0.14999999999999997 0.06874999999999998 -0.19375
v -0.14999999999999997 -0.30625 -0.09375000000000008
v -0.14999999999999997 -0.30625 -0.19375
vt 1 1
vt 0 1
vt 0 0.5
vt 1 0.5
vt 1 0.5
vt 1 1
vt 0 1
vt 0 0.5
vt 0 0
vt 1 0
vt 1 1
vt 0 1
vt 1 0
vt 1 1
vt 0 1
vt 0 0
vt 1 0.5
vt 1 1
vt 0 1
vt 0 0.5
vt 1 1
vt 0 1
vt 0 0.5
vt 1 0.5
vn 1 0 0
vn -1 0 0
vn 0 1 0
vn 0 -1 0
vn 0 0 1
vn 0 0 -1
usemtl m_4210b5e7-b32e-efc8-dad1-28e402008276
f 26/73/19 25/74/19 27/75/19 28/76/19
f 31/77/20 29/78/20 30/79/20 32/80/20
f 29/81/21 25/82/21 26/83/21 30/84/21
f 28/85/22 27/86/22 31/87/22 32/88/22
f 27/89/23 25/90/23 29/91/23 31/92/23
f 30/93/24 26/94/24 28/95/24 32/96/24
o cuboid
v 0.056770442607992244 0.4272919259955326 0.22759563563454197
v 0.05934375260095359 0.41549191891419524 0.17907617656335578
v 0.11494522146465211 -0.05452960995385853 0.3478607702345099
v 0.11751853145761346 -0.06632961703519591 0.29934131116332374
v -0.030018531457613462 0.4163296170351958 0.2256586888366764
v -0.027445221464652114 0.4045296099538584 0.1771392297654902
v 0.0281562473990464 -0.06549191891419537 0.34592382343664435
v 0.030729557392007747 -0.07729192599553275 0.2974043643654582
vt 1 1
vt 0 1
vt 0 0.5
vt 1 0.5
vt 1 0.5
vt 1 1
vt 0 1
vt 0 0.5
vt 0 0
vt 1 0
vt 1 1
vt 0 1
vt 1 0
vt 1 1
vt 0 1
vt 0 0
vt 1 0.5
vt 1 1
vt 0 1
vt 0 0.5
vt 1 1
vt 0 1
vt 0 0.5
vt 1 0.5
vn 0.9918739893212065 0.1252835309752782 0.022136534832749206
vn -0.9918739893212065 -0.1252835309752782 -0.022136534832749206
vn -0.11634955771331972 0.9636430718987822 -0.2405302691999359
vn 0.11634955771331972 -0.9636430718987822 0.2405302691999359
vn -0.05146619985922701 0.2360001416267483 0.970389181423724
vn 0.05146619985922701 -0.2360001416267483 -0.970389181423724
usemtl m_2c1995a9-b1c7-52e8-bf8e-4afb08f62934
f 34/97/25 33/98/25 35/99/25 36/100/25
f 39/101/26 37/102/26 38/103/26 40/104/26
f 37/105/27 33/106/27 34/107/27 38/108/27
f 36/109/28 35/110/28 39/111/28 40/112/28
f 35/113/29 33/114/29 37/115/29 39/116/29
f 38/117/30 34/118/30 36/119/30 40/120/30
o cuboid
v 0.0480315486278098 0.4136852846357529 -0.17277784142310582
v 0.04029880571924384 0.42651836832981826 -0.22048021715022378
v 0.13237892555167097 -0.05862689928817505 -0.31351419395177504
v 0.12464618264310502 -0.045793815594109666 -0.36121656967889304
v -0.03714618264310503 0.39579381559410953 -0.1637834303211069
v -0.04487892555167099 0.4086268992881749 -0.21148580604822487
v 0.047201194280756156 -0.0765183683298184 -0.3045197828497761
v 0.0394684513721902 -0.06368528463575301 -0.3522221585768941
vt 1 1
vt 0 1
vt 0 0.5
vt 1 0.5
vt 1 0.5
vt 1 1
vt 0 1
vt 0 0.5
vt 0 0
vt 1 0
vt 1 1
vt 0 1
vt 1 0
vt 1 1
vt 0 1
vt 0 0
vt 1 0.5
vt 1 1
vt 0 1
vt 0 0.5
vt 1 1
vt 0 1
vt 0 0.5
vt 1 0.5
vn 0.9734597859533108 0.20447393190449492 -0.10279326973713039
vn -0.9734597859533108 -0.20447393190449492 0.10279326973713039
vn -0.16869475384772237 0.9446243678478556 0.2814727050573384
vn 0.16869475384772237 -0.9446243678478556 -0.2814727050573384
vn 0.15465485817131908 -0.2566616738813082 0.9540475145423597
vn -0.15465485817131908 0.2566616738813082 -0.9540475145423597
usemtl m_2c1995a9-b1c7-52e8-bf8e-4afb08f62934
f 42/121/31 41/122/31 43/123/31 44/124/31
f 47/125/32 45/126/32 46/127/32 48/128/32
f 45/129/33 41/130/33 42/131/33 46/132/33
f 44/133/34 43/134/34 47/135/34 48/136/34
f 43/137/35 41/138/35 45/139/35 47/140/35
f 46/141/36 42/142/36 44/143/36 48/144/36