# Made in Blockbench 4.12.6
mtllib lamp.mtl

o cube
v 0.10624999999999998 2.037500000000002 -0.09375000000000006
v 0.10624999999999998 2.037500000000002 -0.30624999999999997
v 0.10624999999999998 2.025000000000001 -0.09375000000000006
v 0.10624999999999998 2.025000000000001 -0.30624999999999997
v -0.10624999999999998 2.037500000000002 -0.30624999999999997
v -0.10624999999999998 2.037500000000002 -0.09375000000000006
v -0.10624999999999998 2.025000000000001 -0.30624999999999997
v -0.10624999999999998 2.025000000000001 -0.09375000000000006
vt 0 1
vt 0.21249999999999997 1
vt 0.21249999999999997 0.9874999999999989
vt 0 0.9874999999999989
vt 0 1
vt 0.2124999999999999 1
vt 0.2124999999999999 0.9874999999999989
vt 0 0.9874999999999989
vt 0 1
vt 0.21249999999999997 1
vt 0.21249999999999997 0.9874999999999989
vt 0 0.9874999999999989
vt 0 1
vt 0.2124999999999999 1
vt 0.2124999999999999 0.9874999999999989
vt 0 0.9874999999999989
vt 0 1
vt 0.21249999999999997 1
vt 0.21249999999999997 0.7875000000000001
vt 0 0.7875000000000001
vt 0 1
vt 0.21249999999999997 1
vt 0.21249999999999997 0.7875000000000001
vt 0 0.7875000000000001
vn 0 0 -1
vn 1 0 0
vn 0 0 1
vn -1 0 0
vn 0 1 0
vn 0 -1 0
usemtl m_c1e59be1-0356-871b-1a77-6648d9d161bf
f 4/4/1 7/3/1 5/2/1 2/1/1
f 3/8/2 4/7/2 2/6/2 1/5/2
f 8/12/3 3/11/3 1/10/3 6/9/3
f 7/16/4 8/15/4 6/14/4 5/13/4
f 6/20/5 1/19/5 2/18/5 5/17/5
f 7/24/6 4/23/6 3/22/6 8/21/6
o cube
v 0.11875 1.8875000000000004 -0.08125000000000006
v 0.11875 1.8875000000000004 -0.31875
v 0.11875 1.7625000000000004 -0.08125000000000006
v 0.11875 1.7625000000000004 -0.31875
v -0.11875 1.8875000000000004 -0.31875
v -0.11875 1.8875000000000004 -0.08125000000000006
v -0.11875 1.7625000000000004 -0.31875
v -0.11875 1.7625000000000004 -0.08125000000000006
vt 0 1
vt 0.2375 1
vt 0.2375 0.875
vt 0 0.875
vt 0 1
vt 0.2374999999999999 1
vt 0.2374999999999999 0.875
vt 0 0.875
vt 0 1
vt 0.2375 1
vt 0.2375 0.875
vt 0 0.875
vt 0 1
vt 0.2374999999999999 1
vt 0.2374999999999999 0.875
vt 0 0.875
vt 0 1
vt 0.2375 1
vt 0.2375 0.7625000000000001
vt 0 0.7625000000000001
vt 0 1
vt 0.2375 1
vt 0.2375 0.7625000000000001
vt 0 0.7625000000000001
vn 0 0 -1
vn 1 0 0
vn 0 0 1
vn -1 0 0
vn 0 1 0
vn 0 -1 0
usemtl m_c1e59be1-0356-871b-1a77-6648d9d161bf
f 12/28/7 15/27/7 13/26/7 10/25/7
f 11/32/8 12/31/8 10/30/8 9/29/8
f 16/36/9 11/35/9 9/34/9 14/33/9
f 15/40/10 16/39/10 14/38/10 13/37/10
f 14/44/11 9/43/11 10/42/11 13/41/11
f 15/48/12 12/47/12 11/46/12 16/45/12
o cube
v 0.09374999999999997 2.0250000000000026 -0.10625000000000007
v 0.09374999999999997 2.0250000000000026 -0.29374999999999996
v 0.09374999999999997 1.893750000000003 -0.10625000000000007
v 0.09374999999999997 1.893750000000003 -0.29374999999999996
v -0.09374999999999997 2.0250000000000026 -0.29374999999999996
v -0.09374999999999997 2.0250000000000026 -0.10625000000000007
v -0.09374999999999997 1.893750000000003 -0.29374999999999996
v -0.09374999999999997 1.893750000000003 -0.10625000000000007
vt 0.0625 1
vt 1 1
vt 1 0.24999999999999933
vt 0.0625 0.24999999999999933
vt 0.0625 1
vt 1 1
vt 1 0.24999999999999933
vt 0.0625 0.24999999999999933
vt 0.0625 1
vt 1 1
vt 1 0.24999999999999933
vt 0.0625 0.24999999999999933
vt 0.0625 1
vt 1 1
vt 1 0.24999999999999933
vt 0.0625 0.24999999999999933
vt 0 0.959375
vt 0.03125000000000003 0.959375
vt 0.03125000000000003 0.928125
vt 0 0.928125
vt 0 1
vt 0.03125 1
vt 0.03125 0.96875
vt 0 0.96875
vn 0 0 -1
vn 1 0 0
vn 0 0 1
vn -1 0 0
vn 0 1 0
vn 0 -1 0
usemtl m_f780b6b1-e3da-1721-fdc8-38ace274b2c1
f 20/52/13 23/51/13 21/50/13 18/49/13
f 19/56/14 20/55/14 18/54/14 17/53/14
f 24/60/15 19/59/15 17/58/15 22/57/15
f 23/64/16 24/63/16 22/62/16 21/61/16
f 22/68/17 17/67/17 18/66/17 21/65/17
f 23/72/18 20/71/18 19/70/18 24/69/18